<svg xmlns="http://www.w3.org/2000/svg" viewBox="0 0 450 150" width="100%" height="100%">
  <style>
    .brand-text { font-family: 'Georgia', 'Times New Roman', serif; font-size: 42px; fill: #8a6d3b; text-anchor: middle; font-weight: 500; }
    .tagline-text { font-family: 'Georgia', serif; font-style: italic; font-size: 16px; fill: #8a6d3b; text-anchor: middle; letter-spacing: 0.05em; }
    .icon-shape { fill: #8a6d3b; }
  </style>
  <!-- Text: Vanrosector -->
  <text x="225" y="55" class="brand-text">Vanrosector</text>
  <!-- Text: Journey Through Nature's Finest Essence -->
  <text x="225" y="85" class="tagline-text">Journey Through Nature's Finest Essence</text>
  <!-- Icon: Three gold flame/leaf waves -->
  <g transform="translate(205, 95) scale(0.8)">
    <path class="icon-shape" d="M12,5 C10,12 14,18 14,24 C14,30 9,35 9,35 C9,35 17,29 17,22 C17,15 13,8 12,5 Z" />
    <path class="icon-shape" d="M25,2 C22,10 27,20 27,27 C27,34 20,40 20,40 C20,40 31,33 31,25 C31,17 26,7 25,2 Z" />
    <path class="icon-shape" d="M38,5 C36,12 40,18 40,24 C40,30 35,35 35,35 C35,35 43,29 43,22 C43,15 39,8 38,5 Z" />
  </g>
</svg>
